<svg width="33" height="10" viewBox="0 0 33 10" fill="none" xmlns="http://www.w3.org/2000/svg">
  <path d="M4.10352 8.41602V5.15234C4.10352 4.90234 4.05273 4.68555 3.95117 4.50195C3.85352 4.31445 3.70508 4.16992 3.50586 4.06836C3.30664 3.9668 3.06055 3.91602 2.76758 3.91602C2.49414 3.91602 2.25391 3.96289 2.04688 4.05664C1.84375 4.15039 1.68359 4.27344 1.56641 4.42578C1.45312 4.57812 1.39648 4.74219 1.39648 4.91797H0.3125C0.3125 4.69141 0.371094 4.4668 0.488281 4.24414C0.605469 4.02148 0.773438 3.82031 0.992188 3.64062C1.21484 3.45703 1.48047 3.3125 1.78906 3.20703C2.10156 3.09766 2.44922 3.04297 2.83203 3.04297C3.29297 3.04297 3.69922 3.12109 4.05078 3.27734C4.40625 3.43359 4.68359 3.66992 4.88281 3.98633C5.08594 4.29883 5.1875 4.69141 5.1875 5.16406V8.11719C5.1875 8.32812 5.20508 8.55273 5.24023 8.79102C5.2793 9.0293 5.33594 9.23438 5.41016 9.40625V9.5H4.2793C4.22461 9.375 4.18164 9.20898 4.15039 9.00195C4.11914 8.79102 4.10352 8.5957 4.10352 8.41602ZM4.29102 5.65625L4.30273 6.41797H3.20703C2.89844 6.41797 2.62305 6.44336 2.38086 6.49414C2.13867 6.54102 1.93555 6.61328 1.77148 6.71094C1.60742 6.80859 1.48242 6.93164 1.39648 7.08008C1.31055 7.22461 1.26758 7.39453 1.26758 7.58984C1.26758 7.78906 1.3125 7.9707 1.40234 8.13477C1.49219 8.29883 1.62695 8.42969 1.80664 8.52734C1.99023 8.62109 2.21484 8.66797 2.48047 8.66797C2.8125 8.66797 3.10547 8.59766 3.35938 8.45703C3.61328 8.31641 3.81445 8.14453 3.96289 7.94141C4.11523 7.73828 4.19727 7.54102 4.20898 7.34961L4.67188 7.87109C4.64453 8.03516 4.57031 8.2168 4.44922 8.41602C4.32812 8.61523 4.16602 8.80664 3.96289 8.99023C3.76367 9.16992 3.52539 9.32031 3.24805 9.44141C2.97461 9.55859 2.66602 9.61719 2.32227 9.61719C1.89258 9.61719 1.51562 9.5332 1.19141 9.36523C0.871094 9.19727 0.621094 8.97266 0.441406 8.69141C0.265625 8.40625 0.177734 8.08789 0.177734 7.73633C0.177734 7.39648 0.244141 7.09766 0.376953 6.83984C0.509766 6.57812 0.701172 6.36133 0.951172 6.18945C1.20117 6.01367 1.50195 5.88086 1.85352 5.79102C2.20508 5.70117 2.59766 5.65625 3.03125 5.65625H4.29102ZM10.8887 8.26953V0.5H11.9785V9.5H10.9824L10.8887 8.26953ZM6.62305 6.40039V6.27734C6.62305 5.79297 6.68164 5.35352 6.79883 4.95898C6.91992 4.56055 7.08984 4.21875 7.30859 3.93359C7.53125 3.64844 7.79492 3.42969 8.09961 3.27734C8.4082 3.12109 8.75195 3.04297 9.13086 3.04297C9.5293 3.04297 9.87695 3.11328 10.1738 3.25391C10.4746 3.39062 10.7285 3.5918 10.9355 3.85742C11.1465 4.11914 11.3125 4.43555 11.4336 4.80664C11.5547 5.17773 11.6387 5.59766 11.6855 6.06641V6.60547C11.6426 7.07031 11.5586 7.48828 11.4336 7.85938C11.3125 8.23047 11.1465 8.54688 10.9355 8.80859C10.7285 9.07031 10.4746 9.27148 10.1738 9.41211C9.87305 9.54883 9.52148 9.61719 9.11914 9.61719C8.74805 9.61719 8.4082 9.53711 8.09961 9.37695C7.79492 9.2168 7.53125 8.99219 7.30859 8.70312C7.08984 8.41406 6.91992 8.07422 6.79883 7.68359C6.68164 7.28906 6.62305 6.86133 6.62305 6.40039ZM7.71289 6.27734V6.40039C7.71289 6.7168 7.74414 7.01367 7.80664 7.29102C7.87305 7.56836 7.97461 7.8125 8.11133 8.02344C8.24805 8.23438 8.42188 8.40039 8.63281 8.52148C8.84375 8.63867 9.0957 8.69727 9.38867 8.69727C9.74805 8.69727 10.043 8.62109 10.2734 8.46875C10.5078 8.31641 10.6953 8.11523 10.8359 7.86523C10.9766 7.61523 11.0859 7.34375 11.1641 7.05078V5.63867C11.1172 5.42383 11.0488 5.2168 10.959 5.01758C10.873 4.81445 10.7598 4.63477 10.6191 4.47852C10.4824 4.31836 10.3125 4.19141 10.1094 4.09766C9.91016 4.00391 9.67383 3.95703 9.40039 3.95703C9.10352 3.95703 8.84766 4.01953 8.63281 4.14453C8.42188 4.26562 8.24805 4.43359 8.11133 4.64844C7.97461 4.85938 7.87305 5.10547 7.80664 5.38672C7.74414 5.66406 7.71289 5.96094 7.71289 6.27734ZM14.7441 4.41992V9.5H13.6543V3.16016H14.6855L14.7441 4.41992ZM14.5215 6.08984L14.0176 6.07227C14.0215 5.63867 14.0781 5.23828 14.1875 4.87109C14.2969 4.5 14.459 4.17773 14.6738 3.9043C14.8887 3.63086 15.1562 3.41992 15.4766 3.27148C15.7969 3.11914 16.168 3.04297 16.5898 3.04297C16.8867 3.04297 17.1602 3.08594 17.4102 3.17188C17.6602 3.25391 17.877 3.38477 18.0605 3.56445C18.2441 3.74414 18.3867 3.97461 18.4883 4.25586C18.5898 4.53711 18.6406 4.87695 18.6406 5.27539V9.5H17.5566V5.32812C17.5566 4.99609 17.5 4.73047 17.3867 4.53125C17.2773 4.33203 17.1211 4.1875 16.918 4.09766C16.7148 4.00391 16.4766 3.95703 16.2031 3.95703C15.8828 3.95703 15.6152 4.01367 15.4004 4.12695C15.1855 4.24023 15.0137 4.39648 14.8848 4.5957C14.7559 4.79492 14.6621 5.02344 14.6035 5.28125C14.5488 5.53516 14.5215 5.80469 14.5215 6.08984ZM18.6289 5.49219L17.9023 5.71484C17.9062 5.36719 17.9629 5.0332 18.0723 4.71289C18.1855 4.39258 18.3477 4.10742 18.5586 3.85742C18.7734 3.60742 19.0371 3.41016 19.3496 3.26562C19.6621 3.11719 20.0195 3.04297 20.4219 3.04297C20.7617 3.04297 21.0625 3.08789 21.3242 3.17773C21.5898 3.26758 21.8125 3.40625 21.9922 3.59375C22.1758 3.77734 22.3145 4.01367 22.4082 4.30273C22.502 4.5918 22.5488 4.93555 22.5488 5.33398V9.5H21.459V5.32227C21.459 4.9668 21.4023 4.69141 21.2891 4.49609C21.1797 4.29688 21.0234 4.1582 20.8203 4.08008C20.6211 3.99805 20.3828 3.95703 20.1055 3.95703C19.8672 3.95703 19.6562 3.99805 19.4727 4.08008C19.2891 4.16211 19.1348 4.27539 19.0098 4.41992C18.8848 4.56055 18.7891 4.72266 18.7227 4.90625C18.6602 5.08984 18.6289 5.28516 18.6289 5.49219ZM25.3672 3.16016V9.5H24.2773V3.16016H25.3672ZM24.1953 1.47852C24.1953 1.30273 24.248 1.1543 24.3535 1.0332C24.4629 0.912109 24.623 0.851562 24.834 0.851562C25.041 0.851562 25.1992 0.912109 25.3086 1.0332C25.4219 1.1543 25.4785 1.30273 25.4785 1.47852C25.4785 1.64648 25.4219 1.79102 25.3086 1.91211C25.1992 2.0293 25.041 2.08789 24.834 2.08789C24.623 2.08789 24.4629 2.0293 24.3535 1.91211C24.248 1.79102 24.1953 1.64648 24.1953 1.47852ZM28.1914 4.51367V9.5H27.1074V3.16016H28.1328L28.1914 4.51367ZM27.9336 6.08984L27.4824 6.07227C27.4863 5.63867 27.5508 5.23828 27.6758 4.87109C27.8008 4.5 27.9766 4.17773 28.2031 3.9043C28.4297 3.63086 28.6992 3.41992 29.0117 3.27148C29.3281 3.11914 29.6777 3.04297 30.0605 3.04297C30.373 3.04297 30.6543 3.08594 30.9043 3.17188C31.1543 3.25391 31.3672 3.38672 31.543 3.57031C31.7227 3.75391 31.8594 3.99219 31.9531 4.28516C32.0469 4.57422 32.0938 4.92773 32.0938 5.3457V9.5H31.0039V5.33398C31.0039 5.00195 30.9551 4.73633 30.8574 4.53711C30.7598 4.33398 30.6172 4.1875 30.4297 4.09766C30.2422 4.00391 30.0117 3.95703 29.7383 3.95703C29.4688 3.95703 29.2227 4.01367 29 4.12695C28.7812 4.24023 28.5918 4.39648 28.4316 4.5957C28.2754 4.79492 28.1523 5.02344 28.0625 5.28125C27.9766 5.53516 27.9336 5.80469 27.9336 6.08984Z" fill="#82F3FF"/>
  </svg>
  